<?xml version="1.0" encoding="UTF-8" standalone="no"?>
<svg xmlns:rdf="http://www.w3.org/1999/02/22-rdf-syntax-ns#" xmlns="http://www.w3.org/2000/svg" height="868.9" viewBox="0 0 634.85694 868.898" width="634.86" version="1.1" xmlns:cc="http://creativecommons.org/ns#" xmlns:dc="http://purl.org/dc/elements/1.1/">
<g transform="scale(4)">
<rect height="10" width="10" y="42.289" x="62.328" fill="#ccc"/>
<path d="m158.71 137.87a79.357 79.357 0 0 1 -79.353 79.35 79.357 79.357 0 0 1 -79.357 -79.35 79.357 79.357 0 0 1 79.357 -79.36 79.357 79.357 0 0 1 79.353 79.36z" fill="#7f8000"/>
<path d="m77.328 0-21 21v4l12 12h5v-5l-9-9 15-15 15 15-9 9v5h5l12-12v-4l-21-21h-4zm-16 41v14h36v-14h-36zm4 2h3v9h-3v-9z" fill="#666"/>
<path d="m28.383 110.82c-8.207 0.18234-16.703 1.6427-24.943 4.0098a79.357 79.357 0 0 0 -2.7168 12.967c1.9086 1.0672 3.7994 2.2414 5.6602 3.5644 3.2361 2.4671 6.2485 5.1963 9.0176 8.1504-4.3267 2.2633-9.3539 4.563-14.887 6.5723a79.357 79.357 0 0 0 1.6582 9.8105c16.541 6.4271 38.049 4.9205 57.219-1.1719 16.86 7.761 39.738 6.4395 60 0 10.445 4.8082 23.201 6.1255 36.213 4.9043a79.357 79.357 0 0 0 1.8418 -8.0527c-3.8612 0.41727-7.8179 0.59208-11.842 0.42969-0.93347-2.5694-2.0113-5.0712-3.2285-7.498 1.4753-0.88267 2.913-1.7861 4.2852-2.7207 2.8727-2.012 6.3723-4.2472 10.359-6.498 0.54423 0.75262 1.1078 1.4904 1.6816 2.2207a79.357 79.357 0 0 0 -0.99023 -11.877c-0.88633 0.50617-1.7618 1.0202-2.6191 1.543-1.9084-2.3133-3.6812-4.7401-5.2969-7.2773 2.2754 0.0136 4.5574 0.13604 6.8398 0.36719a79.357 79.357 0 0 0 -2.7227 -9.3652c-11.992-0.60863-24.908 1.7586-36.93 5.9746-16.652-8.9924-39.615-7.1491-60 0-8.3262-4.4962-18.229-6.2831-28.6-6.0527zm-0.72266 9.0723c0.30932-0.007 0.62002 0.005 0.92969 0.002 1.1878 3.0198 2.5898 5.936 4.1719 8.7442-0.99905 0.64746-1.9818 1.3012-2.9316 1.9688-2.2692 1.6888-6.1745 4.3353-11.287 7.1973-3.5077-5.4097-7.7581-10.317-12.643-14.582 6.9656-1.9033 14.306-3.1641 21.76-3.3301zm60 0c0.30932-0.007 0.62002 0.005 0.92969 0.002 1.1878 3.0198 2.5898 5.936 4.1719 8.7442-0.99905 0.64746-1.9818 1.3012-2.9316 1.9688-2.2692 1.6888-6.1745 4.3353-11.287 7.1973-3.5077-5.4097-7.7581-10.317-12.643-14.582 6.9656-1.9033 14.306-3.1641 21.76-3.3301zm60 0c0.30931-0.007 0.62002 0.005 0.92968 0.002 1.1878 3.0198 2.5898 5.936 4.1719 8.7442-0.99905 0.64746-1.9818 1.3012-2.9316 1.9688-2.2692 1.6888-6.1746 4.3353-11.287 7.1973-3.5077-5.4097-7.7581-10.317-12.643-14.582 6.9656-1.9033 14.306-3.1641 21.76-3.3301zm-117.87 0.004c5.1349 0.0308 10.306 0.57665 15.43 1.8125-3.5499 1.687-6.945 3.5212-10.133 5.4648-1.9084-2.3133-3.6812-4.7401-5.2969-7.2773zm60 0c5.1349 0.0308 10.306 0.57665 15.43 1.8125-3.5499 1.687-6.945 3.5212-10.133 5.4648-1.9084-2.3133-3.6812-4.7401-5.2969-7.2773zm-32.57 6.0723c3.1058 1.4855 6.1667 3.2656 9.1582 5.3926 3.2361 2.4671 6.2485 5.1963 9.0176 8.1504-4.4125 2.3082-9.5457 4.6582-15.209 6.6953-4.3706-1.9141-8.7253-4.3456-13.021-7.4004-2.257-1.7206-4.4038-3.573-6.4375-5.5352 4.9577-2.6034 10.515-5.1448 16.492-7.3027zm60 0c3.1058 1.4855 6.1668 3.2656 9.1582 5.3926 3.2361 2.4671 6.2486 5.1963 9.0176 8.1504-4.4125 2.3082-9.5458 4.6582-15.209 6.6953-4.3706-1.9141-8.7253-4.3456-13.021-7.4004-2.257-1.7206-4.4038-3.573-6.4375-5.5352 4.9577-2.6034 10.515-5.1448 16.492-7.3027zm-80.205 9.3184c3.7746 5.2199 8.2673 9.9152 13.379 13.936-7.7264 1.9698-16.114 3.1316-24.795 2.7812-0.93346-2.5694-2.0113-5.0712-3.2285-7.498 1.4753-0.88267 2.9129-1.7861 4.2852-2.7207 2.8727-2.012 6.3723-4.2472 10.359-6.498zm60 0c3.7746 5.2199 8.2673 9.9152 13.379 13.936-7.7264 1.9698-16.114 3.1316-24.795 2.7812-0.93346-2.5694-2.0113-5.0712-3.2285-7.498 1.4753-0.88267 2.9129-1.7861 4.2852-2.7207 2.8727-2.012 6.3723-4.2472 10.359-6.498zm-76.51 10.305c1.5368 2.0443 2.9715 4.1696 4.291 6.3711-4.3391-0.22152-8.7471-0.81712-13.18-1.8906 3.0967-1.3837 6.0715-2.8818 8.8887-4.4805zm60 0c1.5368 2.0443 2.9715 4.1696 4.291 6.3711-4.3391-0.22152-8.7471-0.81712-13.18-1.8906 3.0967-1.3837 6.0715-2.8818 8.8887-4.4805zm60 0c1.5368 2.0443 2.9715 4.1696 4.291 6.3711-4.339-0.22152-8.7471-0.81712-13.18-1.8906 3.0968-1.3837 6.0715-2.8818 8.8887-4.4805z" fill="#feff7c"/>
</g>
</svg>
